# xmcd
#
# Track frame offsets:
#	150
#	4814
#	13910
#	28086
#	34198
#	56515
#	75935
#	88360
#	98125
#	107043
#	115870
#	120256
#	130507
#	137477
#	153942
#	170601
#	190912
#	202810
#	209865
#	225502
#	236253
#	244425
#	247807
#	255843
#	267467
#	281944
#	299650
#	325497
#	332230
#	338500
#
# Disc length: 4786 seconds
#
# Revision: 0
# Processed by: cddbd v1.5.2PL0 Copyright (c) Steve Scherf et al.
# Submitted via: audiograbber 1.83.01
#
DISCID=a812b01e
DTITLE=Various Artist - AUDIO 2019-04 - forte Piano forte
DYEAR=2019
DGENRE=Classical
TTITLE0=Frédéric Chopin - Prélude op. 28 Presto con fuoco
TTITLE1=J.L.Krebs - Partita B-Dur: Corrente
TTITLE2=Sigismund Thalberg - Etüde Nr. 12 Allegro op. 26
TTITLE3=Josef Matthias Hauer - Melodies II op. 32
TTITLE4=Johannes Brahms - Scherzo. Allegro energico aus Sonate Nr. 3 op. 5
TTITLE5=Bach/Busoni - Wachet auf, ruft uns die Stimme (Allegretto tranquillo)
TTITLE6=Frederic Chopin - Walzer op. 64/3 Moderato
TTITLE7=Jacques Ibert - Le petit âne blanc
TTITLE8=John Cage - Sonata II for Prepared Piano
TTITLE9=Robert Schumann - aus Humoreske op. 20
TTITLE10=Wolfgang Amadeus Mozart - Pimpinella KV 33B F-Dur
TTITLE11=Domenico Scarlatti - Sonata K 278 D-Dur
TTITLE12=Johann Adam Reincken - Sarabande aus Suite in F
TTITLE13=Jaroslav Jezek - Bugatti-Step
TTITLE14=Johannes Brahms - Intermezzo. Adagio op. 119
TTITLE15=Cécile Chaminade - Etude humoristique op. 138
TTITLE16=Robert Schumann - Abendlied aus op. 85
TTITLE17=Frédéric Chopin - Vivace Ges-Dur aus Etudes op. 10
TTITLE18=Robert Schumann - Aria aus op. 11
TTITLE19=Bach/Reger - Allegro aus Brandenburgisches Konzert Nr. 3
TTITLE20=Jan Pieterszoon Sweelinck - Die flichtig Nimphae V 14
TTITLE21=John Cage - V aus der Suite for Toy Piano
TTITLE22=Gioacchino Rossini - Prélude (aus Musique anodine)
TTITLE23=Franz Schubert - Scherzo (Allegro Vivace) aus Sonata A-Dur D 959
TTITLE24=Conlon Nancarrow - Study No. 21 "X"
TTITLE25=Louis Brassin (1840-1884) - Walhall
TTITLE26=Wolfgang Amadeus Mozart - Fantaisie d'introduction KV 397
TTITLE27=Johannes Brahms - Intermezzo op. 119
TTITLE28=Jan Pieterszoon Sweelinck - Malle Sijmen V 12
TTITLE29=Marc-André Hamelin - Circus Galop for two Player Pianos
EXTD=
EXTT0=
EXTT1=
EXTT2=
EXTT3=
EXTT4=
EXTT5=
EXTT6=
EXTT7=
EXTT8=
EXTT9=
EXTT10=
EXTT11=
EXTT12=
EXTT13=
EXTT14=
EXTT15=
EXTT16=
EXTT17=
EXTT18=
EXTT19=
EXTT20=
EXTT21=
EXTT22=
EXTT23=
EXTT24=
EXTT25=
EXTT26=
EXTT27=
EXTT28=
EXTT29=
PLAYORDER=
